<svg width="186.999023" height="51.996094" viewBox="0 0 186.999 51.9961" fill="none" xmlns="http://www.w3.org/2000/svg" xmlns:xlink="http://www.w3.org/1999/xlink">
	<desc>
			Created with Pixso.
	</desc>
	<defs/>
	<path id="Слияние" d="M161.749 8.65625C161.756 8.73828 161.759 8.82422 161.759 8.91406C161.759 9.5625 161.585 10.3594 161.376 11.0586C160.975 12.3906 160.19 13.5781 159.039 14.3477C158.934 14.418 158.847 14.4727 158.76 14.5234C158.044 14.9258 157.12 15.1367 156.091 15.1367C155.061 15.1367 154.154 14.9453 153.352 14.5586C152.549 14.1758 151.886 13.6328 151.345 12.9688C150.805 12.2852 150.404 11.4961 150.125 10.5703C149.845 9.64062 149.706 8.66406 149.706 7.55859C149.706 6.45703 149.88 5.44141 150.212 4.51562C150.543 3.58594 151.014 2.78125 151.607 2.11719C152.2 1.45312 152.916 0.925781 153.735 0.558594C154.573 0.191406 155.462 0 156.422 0C156.945 0 157.416 0.0703125 157.817 0.191406C158.236 0.316406 158.585 0.472656 158.882 0.648438C159.178 0.824219 159.44 0.996094 159.667 1.19141C159.893 1.38281 160.312 2.80078 160.312 2.80078C160.016 2.34375 159.667 1.94141 159.248 1.60938C158.829 1.27734 158.376 1.01562 157.852 0.824219C157.329 0.628906 156.788 0.542969 156.213 0.542969C155.34 0.542969 154.974 0.753906 154.276 1.13672C153.578 1.50391 153.229 2.01172 152.741 2.66016C152.253 3.30859 152.008 4.02344 151.747 4.86328C151.485 5.70312 151.345 6.61328 151.345 7.55859C151.345 8.50391 151.485 9.39844 151.782 10.2734C152.078 11.1484 152.479 12.1094 152.968 12.7578C153.456 13.4062 153.997 13.9805 154.677 14.3672C155.269 14.7109 155.611 14.707 155.95 14.6992C155.991 14.6992 156.032 14.6992 156.073 14.6992C156.771 14.6836 157.416 14.5938 157.992 14.3672C158.568 14.1406 159.073 13.8438 159.492 13.457C159.911 13.0703 160.242 12.6328 160.469 12.1094C160.696 11.5859 160.818 11.0234 160.818 10.4297C160.818 9.99219 160.748 9.64062 160.591 9.36328C160.517 9.23047 160.26 8.97266 159.961 8.73438L155.399 8.73438L155.399 8.17188L161.749 8.17188L161.749 8.65625ZM177.335 5.82812L186.999 14.9648L184.592 14.875L184.382 14.6484L176.515 6.94922L176.131 7.45703L176.131 14.1758L176.271 14.8398L175.137 14.8398L175.294 14.2109L175.294 0.808594L175.154 0.140625L176.305 0.140625L176.131 0.773438L176.131 6.53125L180.841 0.140625L181.539 0.125L177.335 5.82812ZM173.229 14.8906L172.946 14.8906L172.915 14.8906L163.385 2.8125L163.385 14.8945L162.826 14.8945L162.826 1.79688C162.763 1.43359 162.222 0.191406 162.222 0.191406L163.338 0.191406L172.898 12.4062L172.946 12.7617L172.946 0.191406L173.504 0.191406L173.504 14.8906L173.229 14.8906ZM96.863 39.7461C105.762 32.4258 118.304 24.3008 120.338 30.7656C120.817 32.2773 120.992 34.0742 120.992 35.8164C120.992 38.3984 120.608 40.8477 120.254 42.043C119.279 45.2773 117.372 48.168 114.575 50.043C114.321 50.2109 114.109 50.3398 113.897 50.4648C112.16 51.4453 109.914 51.957 107.414 51.957C104.914 51.957 102.711 51.4883 100.761 50.5508C98.8123 49.6172 97.2019 48.2969 95.8884 46.6797C95.0833 45.7031 94.4053 44.5117 93.8545 43.2773C93.083 43.8477 90.8662 44.7422 88.1816 45.7578L88.1816 49.8672L88.5205 51.4844L85.7239 51.4844L86.1477 49.9531L86.1477 46.5195C83.3225 47.5703 80.2729 48.6875 77.9463 49.6758C76.9756 50.4727 75.7966 51.0234 74.4922 51.4883C73.1362 51.9531 71.6531 51.9961 70.2124 51.9961C68.6445 51.9961 67.3311 51.9141 66.2292 51.6992C65.1274 51.4883 64.1953 51.2305 63.3901 50.9336C62.6589 50.6641 61.9277 50.4961 61.4504 50.0859C60.821 49.7773 60.2734 49.418 59.917 49.0195C58.095 46.9766 55.3828 35.0195 52.2048 32.2539C50.0986 30.4219 45.2756 31.9336 36.9094 37.3711L36.9094 50.082L51.9102 50.082C52.7998 50.082 55.6389 49.1484 55.8933 48.3789L55.8933 51.4883L32.5024 51.4883C32.5024 51.4883 33.2654 48.082 33.2654 47.4453L33.2654 39.832C30.8845 41.4961 28.2671 43.4141 25.3992 45.6055C25.1106 45.9453 24.8083 46.2773 24.4924 46.5938C22.9246 48.168 21.0601 49.3594 18.9414 50.2109C16.8228 51.0625 14.4922 51.4883 11.9919 51.4883L0 51.4883C0 51.4883 1.22876 48.082 1.22876 47.4453L0.805176 19.7891L0 15.7461L11.9919 15.7461C14.4922 15.7461 16.8228 16.1719 18.9414 17.0234C21.0601 17.875 22.9246 19.0664 24.4924 20.6406C26.0603 22.2148 27.2891 24.0859 28.179 26.2969C29.0688 28.5117 29.4927 30.9375 29.4927 33.6172C29.4927 36.2969 29.0688 38.7656 28.179 40.9336C27.7976 41.8828 27.354 42.7695 26.8479 43.5938C28.7161 41.9219 30.9241 40.0156 33.2654 38.1328L33.2654 19.7891C33.2654 19.1484 32.4602 15.7461 32.4602 15.7461L55.4272 15.7461L55.4272 18.8086C54.9609 18.2148 52.2915 17.1094 51.4016 17.1094L36.9094 17.1094L36.9094 35.3164C44.2981 29.8672 51.946 25.8984 53.9846 30.8516C57.5535 39.5234 58.4473 45.7812 62.8684 49.2422C63.7473 49.8516 64.8611 50.2031 65.9751 50.5508C67.3311 50.9766 68.7717 51.1875 70.3396 51.1875C71.738 51.1875 72.9668 51.0195 74.0686 50.5938C75.1702 50.2109 76.1025 49.6562 76.8652 48.9766C77.6279 48.2969 78.179 47.4883 78.6025 46.5938C78.9839 45.6992 79.1958 44.7227 79.1958 43.6992C79.1958 42.3828 76.95 39.5742 75.9753 38.8906C75.0007 38.2109 73.8989 37.5742 72.7126 37.0625C71.4836 36.5508 70.2549 36.043 68.9836 35.5312C68.2209 35.2344 67.5005 34.9336 66.78 34.5938C66.78 34.5938 65.1699 33.9141 64.4072 33.5312C62.3308 32.5117 61.4409 31.5742 60.4238 29.8711C59.6189 28.5117 59.1528 26.5117 59.1528 24.5117C59.1528 23.1484 59.4492 21.9141 60.0425 20.7656C60.6357 19.6172 61.3984 18.6406 62.4155 17.832C63.3901 17.0234 64.5767 16.3828 65.8901 15.918C67.2039 15.4492 68.6023 15.2344 70.043 15.2344C71.6108 15.2344 72.9668 15.3203 74.0686 15.5742C75.1702 15.7891 76.1025 16.043 76.9077 16.3438C77.7126 16.6406 78.3906 16.9805 78.9839 17.3203C79.5771 17.6602 80.1704 18 80.7212 18.2578C80.7212 18.2578 81.0603 20.0156 81.0603 20.8711C81.0603 21.3008 80.9756 21.5039 80.7212 21.1484C79.9585 20.0859 79.0686 19.1914 78.0093 18.4258C76.95 17.7031 75.7212 17.1094 74.3652 16.6836C73.009 16.2578 71.5684 16.043 70.0005 16.043C68.6023 16.043 67.3733 16.2148 66.2717 16.6406C65.1699 17.0234 64.2375 17.5742 63.4749 18.2578C62.7122 18.9375 62.1614 19.7461 61.7375 20.6406C61.3562 21.5312 61.1443 22.5117 61.1443 23.5312C61.1443 24.8516 61.4409 26 62.0342 26.9375C62.6274 27.8711 63.3901 28.6797 64.3647 29.3633C65.3394 30.043 70.3396 31.7852 71.6108 32.2969C78.4331 35.0195 79.323 36.4688 80.4248 37.9141C81.2595 39.0078 81.9702 40.2578 81.9702 41.9297C81.9702 42.2109 81.9502 42.5039 81.9077 42.8086C81.7383 44.125 81.4417 45.4023 80.8484 46.5508C80.5571 47.0938 80.1023 47.6602 79.5945 48.1875C81.2256 47.3438 83.3608 46.3242 86.1477 45.125L86.1477 32.5078L86.1467 32.5078L86.1042 17.3594L85.7654 15.7461L88.562 15.7461L88.1807 17.2773L88.1807 32.293L88.1816 32.293L88.1816 44.2656C89.749 43.6133 91.4924 42.918 93.4307 42.168C93.2188 41.6172 93.0918 41.4883 92.9221 40.8945C92.2441 38.6367 91.9053 36.2539 91.9053 33.5742C91.9053 30.8945 92.3289 28.4258 93.134 26.1719C93.9392 23.918 95.0833 21.9609 96.5239 20.3438C97.9648 18.7266 99.7021 17.4492 101.694 16.5547C103.728 15.6641 105.889 15.1953 108.219 15.1953C109.491 15.1953 110.635 15.3633 111.609 15.6641C112.626 15.9609 113.474 16.3438 114.194 16.7695C114.915 17.1953 115.55 17.6211 116.101 18.0859C116.652 18.5547 117.669 22 117.669 22C116.948 20.8945 116.101 19.918 115.084 19.1094C114.067 18.3008 112.965 17.6602 111.694 17.1953C110.423 16.7266 109.109 16.5117 107.711 16.5117C105.592 16.5117 104.702 17.0234 103.007 17.9609C101.312 18.8516 100.465 20.0859 99.2783 21.6602C98.0918 23.2344 97.4985 24.9805 96.863 27.0234C96.2273 29.0664 95.8884 31.2773 95.8884 33.5742C95.8884 35.7461 96.2273 37.7891 96.863 39.7461ZM149.027 51.4883L148.264 51.4883L125.176 22.1445L125.176 51.4844L124.577 51.4844L124.577 51.4883L123.814 51.4883L123.814 19.7891C123.814 19.1484 122.331 15.7461 122.331 15.7461L125.043 15.7461L148.264 45.4453L148.351 46.1289L148.351 15.7461L149.707 15.7461L149.707 51.4883L149.027 51.4883ZM4.53418 50.082L10.0427 50.082C10.3396 50.082 10.6333 50.0859 10.9238 50.0898C12.7917 50.1094 14.5371 50.125 16.187 49.3164C18.094 48.3789 19.7041 47.1484 21.1025 45.5742C22.4585 44 23.5603 42.2109 24.323 40.125C25.0857 38.0859 25.5095 35.9141 25.5095 33.6172C25.5095 31.3203 25.1282 29.1484 24.323 27.1055C23.5603 25.0625 22.4585 23.2344 21.1025 21.6602C19.7466 20.0859 18.1362 18.9805 16.2717 18.043C14.365 17.1094 12.2463 17.1094 10.0427 17.1094L4.53418 17.1094L4.53418 50.082ZM118.093 44.6797C118.644 43.4023 118.94 42.043 118.94 40.5938C118.94 39.5312 118.771 34.3828 118.601 33.4062C118.304 32.1719 118.093 31.957 117.711 31.6172C115.296 29.4922 108.728 32.7656 97.2444 40.8945C97.9224 42.8086 98.7698 44.8086 99.8716 46.2539C101.058 47.8281 102.372 49.2344 104.024 50.168C105.462 51.0039 106.292 50.9922 107.117 50.9805C107.216 50.9805 107.314 50.9766 107.414 50.9766C109.109 50.9336 110.677 50.7227 112.075 50.168C113.474 49.6172 114.703 48.8906 115.72 47.957C116.737 47.0195 117.542 45.957 118.093 44.6797Z" clip-rule="evenodd" fill="#333333" fill-opacity="1.000000" fill-rule="evenodd"/>
</svg>
